<?xml version="1.0" standalone="no"?>
<!DOCTYPE svg PUBLIC "-//W3C//DTD SVG 20010904//EN"
 "http://www.w3.org/TR/2001/REC-SVG-20010904/DTD/svg10.dtd">
<svg version="1.0" xmlns="http://www.w3.org/2000/svg"
 width="925.000000pt" height="925.000000pt" viewBox="0 0 925.000000 925.000000"
 preserveAspectRatio="xMidYMid meet">
<metadata>
Created by potrace 1.11, written by Peter Selinger 2001-2013
</metadata>
<g transform="translate(0.000000,925.000000) scale(0.100000,-0.100000)"
fill="#000000" stroke="none">
<path d="M1430 9239 c-298 -18 -494 -61 -675 -149 -267 -129 -466 -328 -595
-595 -91 -187 -130 -370 -150 -700 -14 -232 -14 -6108 0 -6340 20 -330 59
-513 150 -700 129 -267 328 -466 595 -595 187 -91 370 -130 700 -150 232 -14
6108 -14 6340 0 330 20 513 59 700 150 267 129 466 328 595 595 91 187 130
370 150 700 14 232 14 6108 0 6340 -20 330 -59 513 -150 700 -129 267 -328
466 -595 595 -187 91 -370 130 -700 150 -205 12 -6160 11 -6365 -1z m5880
-6266 c277 -57 510 -240 635 -498 69 -142 90 -233 90 -400 0 -167 -21 -258
-90 -402 -123 -254 -363 -441 -637 -497 -100 -21 -277 -20 -376 0 -224 46
-442 191 -571 378 -48 70 -108 202 -133 291 -31 115 -31 345 0 460 25 89 85
221 133 291 208 303 586 453 949 377z"/>
</g>
</svg>
